<svg width="210" height="100" viewBox="0 0 210 100" fill="none" xmlns="http://www.w3.org/2000/svg">
<rect x="19" y="20" width="60" height="60" rx="12" fill="url(#paint0_linear)"/>
<rect x="31.048" y="39.048" width="11.904" height="11.904" fill="white" fill-opacity="0.5" stroke="white" stroke-width="0.096"/>
<rect x="31" y="51" width="12" height="12" fill="white" fill-opacity="0.9"/>
<rect x="31" y="63" width="12" height="4" fill="white" fill-opacity="0.4"/>
<rect x="43.024" y="51.024" width="11.952" height="11.952" fill="white" fill-opacity="0.3" stroke="white" stroke-width="0.048"/>
<rect x="43" y="39" width="12" height="12" fill="white" fill-opacity="0.8"/>
<rect x="55.096" y="39.096" width="11.808" height="11.808" fill="white" fill-opacity="0.6" stroke="white" stroke-width="0.192"/>
<rect x="55" y="33" width="12" height="6" fill="white" fill-opacity="0.2"/>
<path d="M124.573 52.3818L122.527 46.0545L120.555 52.3818H124.573ZM121.018 56.8182V58H115.9V56.8182L117.1 56.5273C117.227 56.497 117.33 56.4455 117.409 56.3727C117.488 56.3 117.548 56.203 117.591 56.0818L121.8 43.7545H124.6L128.882 56.0818C128.924 56.2091 128.988 56.3061 129.073 56.3727C129.158 56.4394 129.261 56.4909 129.382 56.5273L130.491 56.8182V58H124.145V56.8182L125.909 56.5182L125.027 53.7818H120.118L119.264 56.5182L121.018 56.8182ZM134.611 43.8C135.217 43.8 135.777 43.7818 136.292 43.7455C136.814 43.703 137.344 43.6818 137.883 43.6818C140.198 43.6818 141.926 44.2364 143.065 45.3455C144.211 46.4545 144.783 48.1545 144.783 50.4455C144.783 51.7 144.62 52.8152 144.292 53.7909C143.965 54.7606 143.495 55.5727 142.883 56.2273C142.277 56.8758 141.529 57.3636 140.638 57.6909C139.753 58.0182 138.759 58.1697 137.656 58.1455C137.45 58.1394 137.214 58.1273 136.947 58.1091C136.686 58.097 136.42 58.0818 136.147 58.0636C135.874 58.0455 135.604 58.0303 135.338 58.0182C135.077 58.0061 134.847 58 134.647 58H131.301V56.8182L132.756 56.5455C132.883 56.5273 132.983 56.4727 133.056 56.3818C133.129 56.2909 133.165 56.1848 133.165 56.0636V45.7818C133.165 45.6667 133.132 45.5697 133.065 45.4909C132.998 45.4061 132.907 45.3515 132.792 45.3273L131.301 45.0273V43.8H134.611ZM136.147 56.6727C136.335 56.7333 136.583 56.7788 136.892 56.8091C137.201 56.8394 137.486 56.8545 137.747 56.8545C138.347 56.8424 138.883 56.7303 139.356 56.5182C139.829 56.3061 140.226 55.9697 140.547 55.5091C140.868 55.0424 141.114 54.4303 141.283 53.6727C141.459 52.9152 141.547 51.9939 141.547 50.9091C141.547 48.9758 141.232 47.4939 140.601 46.4636C139.971 45.4333 138.962 44.9182 137.574 44.9182C137.241 44.9182 136.944 44.9424 136.683 44.9909C136.423 45.0333 136.244 45.0576 136.147 45.0636V56.6727ZM153.943 52.3818L151.897 46.0545L149.925 52.3818H153.943ZM150.388 56.8182V58H145.27V56.8182L146.47 56.5273C146.597 56.497 146.7 56.4455 146.779 56.3727C146.858 56.3 146.919 56.203 146.961 56.0818L151.17 43.7545H153.97L158.252 56.0818C158.294 56.2091 158.358 56.3061 158.443 56.3727C158.528 56.4394 158.631 56.4909 158.752 56.5273L159.861 56.8182V58H153.516V56.8182L155.279 56.5182L154.397 53.7818H149.488L148.634 56.5182L150.388 56.8182ZM169.422 58H161.995V56.8273L163.731 56.4818C163.883 56.4576 163.995 56.4061 164.068 56.3273C164.147 56.2424 164.186 56.1242 164.186 55.9727V52.4727L160.322 45.7C160.262 45.5909 160.186 45.5061 160.095 45.4455C160.01 45.3848 159.907 45.3394 159.786 45.3091L158.659 45.0273V43.8H165.122V45.0273L163.613 45.3818L166.413 50.6636L169.013 45.3727L167.386 45.0273V43.8H172.322V45.0273L171.259 45.2909C171.137 45.3152 171.031 45.3576 170.94 45.4182C170.856 45.4788 170.783 45.5667 170.722 45.6818L167.24 52.4727V55.9727C167.24 56.1242 167.277 56.2424 167.35 56.3273C167.428 56.4061 167.54 56.4576 167.686 56.4818L169.422 56.8273V58Z" fill="url(#paint1_linear)"/>
<defs>
<linearGradient id="paint0_linear" x1="49" y1="20" x2="49" y2="80" gradientUnits="userSpaceOnUse">
<stop stop-color="#FEA2A2"/>
<stop offset="0.9999" stop-color="#E6CF7E"/>
<stop offset="1" stop-color="#D2CEA8" stop-opacity="0"/>
<stop offset="1" stop-color="#E6CF7E"/>
</linearGradient>
<linearGradient id="paint1_linear" x1="144.5" y1="37" x2="140" y2="63" gradientUnits="userSpaceOnUse">
<stop stop-color="#FE7D7D"/>
<stop offset="0.9999" stop-color="#E6CF7E"/>
<stop offset="1" stop-color="#D2CEA8" stop-opacity="0"/>
<stop offset="1" stop-color="#E6C44F"/>
</linearGradient>
</defs>
</svg>
